# xmcd CD database file
#
# Track frame offsets:
#	182
#	26320
#	53652
#	78380
#	108847
#	137830
#	184260
#	225577
#
# Disc length: 3252 seconds
#
# Revision: 0
# Processed by: cddbd v1.5.2PL0 Copyright (c) Steve Scherf et al.
# Submitted via: CDex 1.51
#
DISCID=5a0cb208
DTITLE=Barry Guy - You forget to answer
DYEAR=1996
DGENRE=Jazz
TTITLE0=Air is a significant factor
TTITLE1=Schrödingers cat
TTITLE2=You forget to answer
TTITLE3=Discorsi
TTITLE4=Zonks
TTITLE5=EPR
TTITLE6=Eye-Luh
TTITLE7=The importance of oxidation
EXTD=YEAR: 1996
EXTT0=
EXTT1=
EXTT2=
EXTT3=
EXTT4=
EXTT5=
EXTT6=
EXTT7=
PLAYORDER=
